<?xml version="1.0" standalone="no"?>
<!DOCTYPE svg PUBLIC "-//W3C//DTD SVG 20010904//EN"
 "http://www.w3.org/TR/2001/REC-SVG-20010904/DTD/svg10.dtd">
<svg version="1.0" xmlns="http://www.w3.org/2000/svg"
 width="512.000000pt" height="512.000000pt" viewBox="0 0 512.000000 512.000000"
 preserveAspectRatio="xMidYMid meet">
<metadata>
Created by potrace 1.16, written by Peter Selinger 2001-2019
</metadata>
<g transform="translate(0.000000,512.000000) scale(0.100000,-0.100000)"
fill="#000000" stroke="none">
<path d="M259 4861 l-259 -259 0 -108 0 -108 76 74 c97 94 542 540 609 609
l49 51 -108 0 -108 0 -259 -259z"/>
<path d="M709 4411 l-709 -708 0 -109 0 -108 76 74 c102 100 1445 1443 1509
1509 l49 51 -108 0 -109 0 -708 -709z"/>
<path d="M1860 4663 c-252 -252 -457 -459 -456 -461 2 -2 35 17 73 42 86 55
261 147 328 172 42 16 90 59 340 310 159 160 312 315 340 343 l49 51 -108 0
-108 0 -458 -457z"/>
<path d="M2939 4841 l-281 -278 101 -11 101 -12 238 239 c130 131 259 262 287
290 l49 51 -107 0 -108 0 -280 -279z"/>
<path d="M3754 4758 c-200 -200 -364 -366 -364 -370 0 -8 119 -68 137 -68 10
0 520 503 758 749 l49 51 -108 0 -108 0 -364 -362z"/>
<path d="M4472 4575 l-546 -545 56 -57 56 -56 541 543 541 543 0 58 0 59 -51
0 -51 0 -546 -545z"/>
<path d="M2222 4126 c-236 -237 -244 -246 -276 -323 -43 -101 -90 -243 -83
-250 3 -2 143 133 311 301 l306 307 0 104 c0 58 -3 105 -7 105 -5 0 -117 -110
-251 -244z"/>
<path d="M4713 3916 l-394 -394 35 -71 c20 -39 39 -71 42 -71 3 0 167 163 365
362 l359 362 0 103 c0 57 -3 103 -6 103 -3 0 -184 -177 -401 -394z"/>
<path d="M3207 4210 l-38 -39 38 -66 c20 -36 41 -65 46 -65 4 0 41 33 82 74
l74 74 -68 31 c-37 17 -74 31 -82 31 -8 0 -32 -18 -52 -40z"/>
<path d="M2838 3841 l-198 -198 0 -56 c0 -52 2 -58 30 -72 16 -8 34 -15 40
-15 15 0 410 398 410 413 -1 17 -63 120 -75 123 -6 2 -99 -86 -207 -195z"/>
<path d="M3660 3763 c-164 -164 -164 -164 20 -96 126 47 202 86 218 114 13 20
10 26 -40 75 l-53 53 -145 -146z"/>
<path d="M452 3256 l-452 -454 0 -108 0 -108 76 74 c42 41 196 194 343 340
239 239 268 272 290 325 38 93 94 202 154 298 31 48 53 87 49 87 -4 0 -211
-205 -460 -454z"/>
<path d="M1141 3045 l-404 -405 111 0 112 0 324 324 c178 178 328 332 334 342
5 11 12 36 16 57 4 21 9 44 12 51 5 12 -55 36 -87 36 -8 0 -196 -183 -418
-405z"/>
<path d="M4825 3128 l-282 -283 8 -80 c5 -44 10 -89 12 -100 2 -15 68 47 280
260 l277 279 0 103 c0 57 -3 103 -6 103 -3 0 -133 -127 -289 -282z"/>
<path d="M3878 3081 l-308 -308 0 -66 0 -67 45 0 45 0 300 300 c165 165 300
304 300 308 0 16 -60 142 -68 142 -4 0 -145 -139 -314 -309z"/>
<path d="M2492 3348 c-29 -16 -101 -49 -159 -74 l-106 -43 -173 -173 -174
-173 0 -113 0 -112 350 350 c193 193 348 355 345 360 -9 15 -25 11 -83 -22z"/>
<path d="M2768 2871 c-304 -303 -311 -311 -293 -331 17 -19 22 -16 247 166
177 143 237 187 266 191 30 5 56 26 144 115 60 60 108 117 108 127 0 19 -8 22
-113 37 l-48 6 -311 -311z"/>
<path d="M4770 2173 l-338 -338 -60 -125 c-59 -122 -119 -223 -194 -328 -21
-29 -35 -52 -32 -52 3 0 223 219 490 486 l484 487 0 103 c0 57 -3 104 -6 104
-3 0 -158 -152 -344 -337z"/>
<path d="M738 1741 l-738 -739 0 -108 0 -108 76 74 c42 41 224 221 403 401
309 307 327 327 320 353 -16 60 33 113 96 102 34 -7 36 -5 350 309 305 305
315 316 315 354 0 21 -3 53 -6 70 -6 28 -10 31 -43 31 -34 0 -70 -34 -773
-739z"/>
<path d="M3838 2142 c-318 -319 -337 -340 -352 -391 -9 -30 -14 -56 -11 -59 2
-3 28 -10 56 -16 l53 -12 390 391 c215 215 397 398 405 408 13 16 6 17 -95 17
l-109 -1 -337 -337z"/>
<path d="M273 2175 l-273 -274 0 -108 0 -107 76 74 c42 41 173 171 291 288
l214 212 -11 82 c-5 45 -10 88 -10 95 0 7 -3 13 -7 13 -5 0 -131 -124 -280
-275z"/>
<path d="M2181 2284 c-174 -174 -168 -158 -94 -244 l34 -39 165 165 c184 184
177 165 95 233 l-47 39 -153 -154z"/>
<path d="M2878 2081 c-186 -185 -338 -341 -338 -344 0 -30 149 27 265 101 85
54 201 165 261 248 49 69 116 204 138 282 8 28 14 52 13 52 -1 0 -154 -153
-339 -339z"/>
<path d="M1837 1941 l-59 -59 12 -59 c17 -86 20 -93 39 -93 16 0 108 81 154
136 17 21 16 23 -29 78 -26 31 -49 56 -53 56 -3 0 -32 -27 -64 -59z"/>
<path d="M4309 812 c-440 -440 -799 -802 -799 -805 0 -4 47 -7 104 -7 l105 0
700 701 701 700 0 105 c0 57 -3 104 -6 104 -4 0 -366 -359 -805 -798z"/>
<path d="M2196 1400 c-138 -138 -197 -204 -193 -214 4 -9 22 -41 42 -71 l35
-55 200 200 200 201 0 58 c0 57 -1 59 -31 70 -18 6 -37 11 -43 11 -6 0 -100
-90 -210 -200z"/>
<path d="M2942 1246 l-303 -304 3 -108 3 -109 239 239 c221 221 241 244 273
313 30 65 103 255 103 268 0 17 -47 -28 -318 -299z"/>
<path d="M1485 1471 c-60 -20 -130 -48 -154 -60 -51 -27 -111 -79 -111 -97 0
-16 86 -104 100 -104 10 0 300 285 300 295 0 10 -28 3 -135 -34z"/>
<path d="M542 646 l-542 -545 0 -50 0 -51 59 0 58 0 542 539 c297 297 541 544
541 548 0 12 -93 103 -105 103 -6 0 -254 -245 -553 -544z"/>
<path d="M1798 1001 c-38 -38 -68 -71 -68 -75 0 -9 117 -66 136 -66 9 0 34 18
56 41 l39 40 -39 61 c-21 34 -43 63 -48 65 -5 2 -39 -28 -76 -66z"/>
<path d="M3699 922 c-70 -48 -189 -118 -265 -155 l-139 -69 -342 -343 c-189
-188 -343 -345 -343 -349 0 -3 47 -6 104 -6 l103 0 507 505 c279 278 506 505
504 504 -2 0 -60 -40 -129 -87z"/>
<path d="M1203 406 c-216 -216 -393 -396 -393 -400 0 -3 46 -6 103 -6 l104 0
361 359 c199 198 362 363 362 368 0 8 -123 73 -138 73 -4 0 -184 -178 -399
-394z"/>
<path d="M4759 362 c-192 -192 -349 -352 -349 -355 0 -4 46 -7 103 -7 l104 0
251 251 252 252 0 103 c0 57 -3 104 -6 104 -4 0 -163 -157 -355 -348z"/>
<path d="M1993 296 c-156 -156 -283 -287 -283 -290 0 -3 46 -6 103 -6 l103 0
278 276 c154 151 275 279 270 284 -5 4 -49 11 -99 14 l-90 6 -282 -284z"/>
</g>
</svg>
